<mxfile host="app.diagrams.net" modified="2023-07-14T15:40:45.467Z" agent="Mozilla/5.0 (Windows NT 10.0; Win64; x64) AppleWebKit/537.36 (KHTML, like Gecko) Chrome/114.0.0.0 Safari/537.36 Edg/114.0.1823.79" etag="snhjZqmLvXgckxOvg-Kd" version="21.6.2" type="github">
  <diagram name="第 1 页" id="PT6hGrXhausuQr09__Po">
    <mxGraphModel dx="1166" dy="775" grid="1" gridSize="10" guides="1" tooltips="1" connect="1" arrows="1" fold="1" page="1" pageScale="1" pageWidth="827" pageHeight="1169" math="0" shadow="0">
      <root>
        <mxCell id="0" />
        <mxCell id="1" parent="0" />
        <mxCell id="wrGV_mXLTRxhNDMkk3RX-2" value="" style="html=1;whiteSpace=wrap;" vertex="1" parent="1">
          <mxGeometry x="110" y="230" width="190" height="340" as="geometry" />
        </mxCell>
        <mxCell id="wrGV_mXLTRxhNDMkk3RX-3" value="&lt;font style=&quot;font-size: 14px;&quot;&gt;决策子系统&lt;/font&gt;" style="text;html=1;align=center;verticalAlign=middle;resizable=0;points=[];autosize=1;strokeColor=none;fillColor=none;" vertex="1" parent="1">
          <mxGeometry x="105" y="230" width="90" height="30" as="geometry" />
        </mxCell>
        <mxCell id="wrGV_mXLTRxhNDMkk3RX-5" value="&lt;span style=&quot;font-size: 14px;&quot;&gt;反欺诈&lt;/span&gt;" style="ellipse;whiteSpace=wrap;html=1;" vertex="1" parent="1">
          <mxGeometry x="145" y="270" width="120" height="47.5" as="geometry" />
        </mxCell>
        <mxCell id="wrGV_mXLTRxhNDMkk3RX-6" value="&lt;span style=&quot;font-size: 14px;&quot;&gt;信用风险评估&lt;/span&gt;" style="ellipse;whiteSpace=wrap;html=1;" vertex="1" parent="1">
          <mxGeometry x="145" y="351.25" width="120" height="47.5" as="geometry" />
        </mxCell>
        <mxCell id="wrGV_mXLTRxhNDMkk3RX-20" value="" style="edgeStyle=orthogonalEdgeStyle;rounded=0;orthogonalLoop=1;jettySize=auto;html=1;endArrow=none;endFill=0;" edge="1" parent="1" source="wrGV_mXLTRxhNDMkk3RX-7" target="wrGV_mXLTRxhNDMkk3RX-8">
          <mxGeometry relative="1" as="geometry" />
        </mxCell>
        <mxCell id="wrGV_mXLTRxhNDMkk3RX-7" value="&lt;span style=&quot;font-size: 14px;&quot;&gt;信用等级评估&lt;/span&gt;" style="ellipse;whiteSpace=wrap;html=1;" vertex="1" parent="1">
          <mxGeometry x="145" y="430" width="120" height="47.5" as="geometry" />
        </mxCell>
        <mxCell id="wrGV_mXLTRxhNDMkk3RX-8" value="&lt;span style=&quot;font-size: 14px;&quot;&gt;自动化审批&lt;/span&gt;" style="ellipse;whiteSpace=wrap;html=1;" vertex="1" parent="1">
          <mxGeometry x="145" y="510" width="120" height="47.5" as="geometry" />
        </mxCell>
        <mxCell id="wrGV_mXLTRxhNDMkk3RX-9" value="&amp;lt;Extends&amp;gt;" style="endArrow=block;endSize=16;endFill=0;html=1;rounded=0;" edge="1" parent="1">
          <mxGeometry width="160" relative="1" as="geometry">
            <mxPoint x="265" y="293.25" as="sourcePoint" />
            <mxPoint x="430" y="230" as="targetPoint" />
          </mxGeometry>
        </mxCell>
        <mxCell id="wrGV_mXLTRxhNDMkk3RX-10" value="&lt;span style=&quot;font-size: 14px;&quot;&gt;欺诈人工审批&lt;/span&gt;" style="ellipse;whiteSpace=wrap;html=1;" vertex="1" parent="1">
          <mxGeometry x="430" y="200" width="120" height="47.5" as="geometry" />
        </mxCell>
        <mxCell id="wrGV_mXLTRxhNDMkk3RX-11" value="&amp;lt;Extends&amp;gt;" style="endArrow=block;endSize=16;endFill=0;html=1;rounded=0;entryX=0;entryY=0.5;entryDx=0;entryDy=0;" edge="1" parent="1" target="wrGV_mXLTRxhNDMkk3RX-12">
          <mxGeometry width="160" relative="1" as="geometry">
            <mxPoint x="265" y="375" as="sourcePoint" />
            <mxPoint x="425" y="374.5" as="targetPoint" />
          </mxGeometry>
        </mxCell>
        <mxCell id="wrGV_mXLTRxhNDMkk3RX-12" value="&lt;span style=&quot;font-size: 14px;&quot;&gt;风险人工审批&lt;/span&gt;" style="ellipse;whiteSpace=wrap;html=1;" vertex="1" parent="1">
          <mxGeometry x="430" y="351.25" width="120" height="47.5" as="geometry" />
        </mxCell>
        <mxCell id="wrGV_mXLTRxhNDMkk3RX-16" style="rounded=0;orthogonalLoop=1;jettySize=auto;html=1;entryX=1;entryY=0.5;entryDx=0;entryDy=0;endArrow=none;endFill=0;" edge="1" parent="1" source="wrGV_mXLTRxhNDMkk3RX-13" target="wrGV_mXLTRxhNDMkk3RX-10">
          <mxGeometry relative="1" as="geometry" />
        </mxCell>
        <mxCell id="wrGV_mXLTRxhNDMkk3RX-17" style="rounded=0;orthogonalLoop=1;jettySize=auto;html=1;entryX=1;entryY=0.5;entryDx=0;entryDy=0;exitX=0;exitY=1;exitDx=0;exitDy=0;exitPerimeter=0;endArrow=none;endFill=0;" edge="1" parent="1" source="wrGV_mXLTRxhNDMkk3RX-13" target="wrGV_mXLTRxhNDMkk3RX-12">
          <mxGeometry relative="1" as="geometry" />
        </mxCell>
        <mxCell id="wrGV_mXLTRxhNDMkk3RX-13" value="系统审批员" style="shape=umlActor;verticalLabelPosition=bottom;verticalAlign=top;html=1;" vertex="1" parent="1">
          <mxGeometry x="660" y="270" width="30" height="60" as="geometry" />
        </mxCell>
        <mxCell id="wrGV_mXLTRxhNDMkk3RX-18" value="&amp;lt;include&amp;gt;" style="endArrow=open;endSize=12;dashed=1;html=1;rounded=0;exitX=1;exitY=0.5;exitDx=0;exitDy=0;" edge="1" parent="1" source="wrGV_mXLTRxhNDMkk3RX-8">
          <mxGeometry width="160" relative="1" as="geometry">
            <mxPoint x="270" y="540" as="sourcePoint" />
            <mxPoint x="430" y="534" as="targetPoint" />
          </mxGeometry>
        </mxCell>
        <mxCell id="wrGV_mXLTRxhNDMkk3RX-19" value="&lt;span style=&quot;font-size: 14px;&quot;&gt;授信可用额度终审&lt;/span&gt;" style="ellipse;whiteSpace=wrap;html=1;" vertex="1" parent="1">
          <mxGeometry x="430" y="510" width="120" height="47.5" as="geometry" />
        </mxCell>
        <mxCell id="wrGV_mXLTRxhNDMkk3RX-21" value="Extends" style="endArrow=block;endSize=16;endFill=0;html=1;rounded=0;exitX=1;exitY=0.5;exitDx=0;exitDy=0;" edge="1" parent="1" source="wrGV_mXLTRxhNDMkk3RX-19">
          <mxGeometry width="160" relative="1" as="geometry">
            <mxPoint x="550" y="530" as="sourcePoint" />
            <mxPoint x="690" y="534" as="targetPoint" />
          </mxGeometry>
        </mxCell>
        <mxCell id="wrGV_mXLTRxhNDMkk3RX-22" value="&lt;span style=&quot;font-size: 14px;&quot;&gt;查看可用额度&lt;/span&gt;" style="ellipse;whiteSpace=wrap;html=1;" vertex="1" parent="1">
          <mxGeometry x="690" y="510" width="120" height="47.5" as="geometry" />
        </mxCell>
        <mxCell id="wrGV_mXLTRxhNDMkk3RX-25" value="" style="edgeStyle=orthogonalEdgeStyle;rounded=0;orthogonalLoop=1;jettySize=auto;html=1;endArrow=none;endFill=0;" edge="1" parent="1" source="wrGV_mXLTRxhNDMkk3RX-23" target="wrGV_mXLTRxhNDMkk3RX-22">
          <mxGeometry relative="1" as="geometry" />
        </mxCell>
        <mxCell id="wrGV_mXLTRxhNDMkk3RX-23" value="借款人" style="shape=umlActor;verticalLabelPosition=bottom;verticalAlign=top;html=1;" vertex="1" parent="1">
          <mxGeometry x="735" y="398.75" width="30" height="60" as="geometry" />
        </mxCell>
      </root>
    </mxGraphModel>
  </diagram>
</mxfile>
